<mxfile host="app.diagrams.net" agent="Mozilla/5.0 (Windows NT 10.0; Win64; x64) AppleWebKit/537.36 (KHTML, like Gecko) Chrome/134.0.0.0 Safari/537.36" version="26.2.8">
  <diagram name="페이지-1" id="eJGP1B0PrUcQ2GELj1H3">
    <mxGraphModel dx="1667" dy="827" grid="1" gridSize="10" guides="1" tooltips="1" connect="1" arrows="1" fold="1" page="1" pageScale="1" pageWidth="960" pageHeight="540" math="0" shadow="0">
      <root>
        <mxCell id="0" />
        <mxCell id="1" parent="0" />
        <mxCell id="S7tSfiDVmj8yiDo-f-o7-75" value="" style="group" vertex="1" connectable="0" parent="1">
          <mxGeometry x="70" y="4" width="809" height="526" as="geometry" />
        </mxCell>
        <mxCell id="S7tSfiDVmj8yiDo-f-o7-2" value="" style="image;sketch=0;aspect=fixed;html=1;points=[];align=center;fontSize=12;image=img/lib/mscae/VirtualMachineWindows.svg;hachureGap=4;jiggle=2;curveFitting=1;fontFamily=Architects Daughter;fontSource=https%3A%2F%2Ffonts.googleapis.com%2Fcss%3Ffamily%3DArchitects%2BDaughter;" vertex="1" parent="S7tSfiDVmj8yiDo-f-o7-75">
          <mxGeometry x="141.64999999999998" y="145" width="76.09" height="70" as="geometry" />
        </mxCell>
        <mxCell id="S7tSfiDVmj8yiDo-f-o7-5" value="" style="sketch=0;pointerEvents=1;shadow=0;dashed=0;html=1;strokeColor=none;fillColor=#005F4B;labelPosition=center;verticalLabelPosition=bottom;verticalAlign=top;align=center;outlineConnect=0;shape=mxgraph.veeam2.esxi_host;hachureGap=4;jiggle=2;curveFitting=1;fontFamily=Architects Daughter;fontSource=https%3A%2F%2Ffonts.googleapis.com%2Fcss%3Ffamily%3DArchitects%2BDaughter;" vertex="1" parent="S7tSfiDVmj8yiDo-f-o7-75">
          <mxGeometry x="187" y="371" width="90" height="79" as="geometry" />
        </mxCell>
        <mxCell id="S7tSfiDVmj8yiDo-f-o7-8" value="" style="sketch=0;pointerEvents=1;shadow=0;dashed=0;html=1;strokeColor=none;fillColor=#434445;aspect=fixed;labelPosition=center;verticalLabelPosition=bottom;verticalAlign=top;align=center;outlineConnect=0;shape=mxgraph.vvd.virtual_switch;hachureGap=4;jiggle=2;curveFitting=1;fontFamily=Architects Daughter;fontSource=https%3A%2F%2Ffonts.googleapis.com%2Fcss%3Ffamily%3DArchitects%2BDaughter;" vertex="1" parent="S7tSfiDVmj8yiDo-f-o7-75">
          <mxGeometry x="261" y="285" width="50" height="26.5" as="geometry" />
        </mxCell>
        <mxCell id="S7tSfiDVmj8yiDo-f-o7-13" value="" style="endArrow=none;html=1;rounded=0;sketch=1;hachureGap=4;jiggle=2;curveFitting=1;fontFamily=Architects Daughter;fontSource=https%3A%2F%2Ffonts.googleapis.com%2Fcss%3Ffamily%3DArchitects%2BDaughter;entryX=0.421;entryY=0.971;entryDx=0;entryDy=0;entryPerimeter=0;" edge="1" parent="S7tSfiDVmj8yiDo-f-o7-75" source="S7tSfiDVmj8yiDo-f-o7-8" target="S7tSfiDVmj8yiDo-f-o7-2">
          <mxGeometry width="50" height="50" relative="1" as="geometry">
            <mxPoint x="51" y="255" as="sourcePoint" />
            <mxPoint x="101" y="205" as="targetPoint" />
          </mxGeometry>
        </mxCell>
        <mxCell id="S7tSfiDVmj8yiDo-f-o7-14" value="" style="sketch=0;pointerEvents=1;shadow=0;dashed=0;html=1;strokeColor=none;fillColor=#434445;aspect=fixed;labelPosition=center;verticalLabelPosition=bottom;verticalAlign=top;align=center;outlineConnect=0;shape=mxgraph.vvd.virtual_switch;hachureGap=4;jiggle=2;curveFitting=1;fontFamily=Architects Daughter;fontSource=https%3A%2F%2Ffonts.googleapis.com%2Fcss%3Ffamily%3DArchitects%2BDaughter;" vertex="1" parent="S7tSfiDVmj8yiDo-f-o7-75">
          <mxGeometry x="311" y="285" width="50" height="26.5" as="geometry" />
        </mxCell>
        <mxCell id="S7tSfiDVmj8yiDo-f-o7-15" value="" style="sketch=0;pointerEvents=1;shadow=0;dashed=0;html=1;strokeColor=none;fillColor=#434445;aspect=fixed;labelPosition=center;verticalLabelPosition=bottom;verticalAlign=top;align=center;outlineConnect=0;shape=mxgraph.vvd.virtual_switch;hachureGap=4;jiggle=2;curveFitting=1;fontFamily=Architects Daughter;fontSource=https%3A%2F%2Ffonts.googleapis.com%2Fcss%3Ffamily%3DArchitects%2BDaughter;" vertex="1" parent="S7tSfiDVmj8yiDo-f-o7-75">
          <mxGeometry x="361" y="285" width="50" height="26.5" as="geometry" />
        </mxCell>
        <mxCell id="S7tSfiDVmj8yiDo-f-o7-16" value="" style="sketch=0;pointerEvents=1;shadow=0;dashed=0;html=1;strokeColor=none;fillColor=#434445;aspect=fixed;labelPosition=center;verticalLabelPosition=bottom;verticalAlign=top;align=center;outlineConnect=0;shape=mxgraph.vvd.virtual_switch;hachureGap=4;jiggle=2;curveFitting=1;fontFamily=Architects Daughter;fontSource=https%3A%2F%2Ffonts.googleapis.com%2Fcss%3Ffamily%3DArchitects%2BDaughter;" vertex="1" parent="S7tSfiDVmj8yiDo-f-o7-75">
          <mxGeometry x="411" y="285" width="50" height="26.5" as="geometry" />
        </mxCell>
        <mxCell id="S7tSfiDVmj8yiDo-f-o7-17" value="" style="sketch=0;pointerEvents=1;shadow=0;dashed=0;html=1;strokeColor=none;fillColor=#434445;aspect=fixed;labelPosition=center;verticalLabelPosition=bottom;verticalAlign=top;align=center;outlineConnect=0;shape=mxgraph.vvd.virtual_switch;hachureGap=4;jiggle=2;curveFitting=1;fontFamily=Architects Daughter;fontSource=https%3A%2F%2Ffonts.googleapis.com%2Fcss%3Ffamily%3DArchitects%2BDaughter;" vertex="1" parent="S7tSfiDVmj8yiDo-f-o7-75">
          <mxGeometry x="461" y="285" width="50" height="26.5" as="geometry" />
        </mxCell>
        <mxCell id="S7tSfiDVmj8yiDo-f-o7-18" value="" style="sketch=0;pointerEvents=1;shadow=0;dashed=0;html=1;strokeColor=none;fillColor=#434445;aspect=fixed;labelPosition=center;verticalLabelPosition=bottom;verticalAlign=top;align=center;outlineConnect=0;shape=mxgraph.vvd.virtual_switch;hachureGap=4;jiggle=2;curveFitting=1;fontFamily=Architects Daughter;fontSource=https%3A%2F%2Ffonts.googleapis.com%2Fcss%3Ffamily%3DArchitects%2BDaughter;" vertex="1" parent="S7tSfiDVmj8yiDo-f-o7-75">
          <mxGeometry x="301" y="80" width="50" height="26.5" as="geometry" />
        </mxCell>
        <mxCell id="S7tSfiDVmj8yiDo-f-o7-21" value="" style="image;html=1;image=img/lib/clip_art/networking/Router_Icon_128x128.png;sketch=1;hachureGap=4;jiggle=2;curveFitting=1;fontFamily=Architects Daughter;fontSource=https%3A%2F%2Ffonts.googleapis.com%2Fcss%3Ffamily%3DArchitects%2BDaughter;" vertex="1" parent="S7tSfiDVmj8yiDo-f-o7-75">
          <mxGeometry x="385.5" width="65" height="60" as="geometry" />
        </mxCell>
        <mxCell id="S7tSfiDVmj8yiDo-f-o7-22" value="&lt;font face=&quot;Helvetica&quot;&gt;VM-10.50.141.x&lt;/font&gt;" style="text;html=1;align=center;verticalAlign=middle;whiteSpace=wrap;rounded=0;fontFamily=Architects Daughter;fontSource=https%3A%2F%2Ffonts.googleapis.com%2Fcss%3Ffamily%3DArchitects%2BDaughter;" vertex="1" parent="S7tSfiDVmj8yiDo-f-o7-75">
          <mxGeometry x="343" y="80.25" width="105" height="30" as="geometry" />
        </mxCell>
        <mxCell id="S7tSfiDVmj8yiDo-f-o7-23" value="" style="endArrow=none;html=1;rounded=0;sketch=1;hachureGap=4;jiggle=2;curveFitting=1;fontFamily=Architects Daughter;fontSource=https%3A%2F%2Ffonts.googleapis.com%2Fcss%3Ffamily%3DArchitects%2BDaughter;exitX=0.425;exitY=0.029;exitDx=0;exitDy=0;exitPerimeter=0;" edge="1" parent="S7tSfiDVmj8yiDo-f-o7-75" source="S7tSfiDVmj8yiDo-f-o7-2" target="S7tSfiDVmj8yiDo-f-o7-18">
          <mxGeometry width="50" height="50" relative="1" as="geometry">
            <mxPoint x="481" y="273" as="sourcePoint" />
            <mxPoint x="531" y="223" as="targetPoint" />
          </mxGeometry>
        </mxCell>
        <mxCell id="S7tSfiDVmj8yiDo-f-o7-24" value="" style="endArrow=none;html=1;rounded=0;sketch=1;hachureGap=4;jiggle=2;curveFitting=1;fontFamily=Architects Daughter;fontSource=https%3A%2F%2Ffonts.googleapis.com%2Fcss%3Ffamily%3DArchitects%2BDaughter;entryX=0.5;entryY=1;entryDx=0;entryDy=0;" edge="1" parent="S7tSfiDVmj8yiDo-f-o7-75" source="S7tSfiDVmj8yiDo-f-o7-18" target="S7tSfiDVmj8yiDo-f-o7-21">
          <mxGeometry width="50" height="50" relative="1" as="geometry">
            <mxPoint x="184" y="157" as="sourcePoint" />
            <mxPoint x="265" y="106" as="targetPoint" />
          </mxGeometry>
        </mxCell>
        <mxCell id="S7tSfiDVmj8yiDo-f-o7-25" value="&lt;font style=&quot;font-size: 12px;&quot; face=&quot;Helvetica&quot;&gt;Ethernet1&lt;/font&gt;" style="text;html=1;align=center;verticalAlign=middle;whiteSpace=wrap;rounded=0;fontFamily=Architects Daughter;fontSource=https%3A%2F%2Ffonts.googleapis.com%2Fcss%3Ffamily%3DArchitects%2BDaughter;" vertex="1" parent="S7tSfiDVmj8yiDo-f-o7-75">
          <mxGeometry x="104.5" y="120" width="105" height="30" as="geometry" />
        </mxCell>
        <mxCell id="S7tSfiDVmj8yiDo-f-o7-27" value="&lt;font face=&quot;Helvetica&quot; style=&quot;font-size: 12px;&quot;&gt;Ethernet0&lt;/font&gt;" style="text;html=1;align=center;verticalAlign=middle;whiteSpace=wrap;rounded=0;fontFamily=Architects Daughter;fontSource=https%3A%2F%2Ffonts.googleapis.com%2Fcss%3Ffamily%3DArchitects%2BDaughter;" vertex="1" parent="S7tSfiDVmj8yiDo-f-o7-75">
          <mxGeometry x="183.5" y="220" width="105" height="30" as="geometry" />
        </mxCell>
        <mxCell id="S7tSfiDVmj8yiDo-f-o7-28" value="&lt;font face=&quot;Helvetica&quot;&gt;Trunk&lt;/font&gt;&lt;div&gt;&lt;font face=&quot;Helvetica&quot;&gt;VLAN4095&lt;/font&gt;&lt;/div&gt;" style="text;html=1;align=center;verticalAlign=middle;whiteSpace=wrap;rounded=0;fontFamily=Architects Daughter;fontSource=https%3A%2F%2Ffonts.googleapis.com%2Fcss%3Ffamily%3DArchitects%2BDaughter;" vertex="1" parent="S7tSfiDVmj8yiDo-f-o7-75">
          <mxGeometry x="258" y="257" width="50" height="30" as="geometry" />
        </mxCell>
        <mxCell id="S7tSfiDVmj8yiDo-f-o7-30" value="&lt;font face=&quot;Helvetica&quot; style=&quot;font-size: 12px;&quot;&gt;VLAN 10 - 10.10.10.1&lt;/font&gt;&lt;div&gt;&lt;font face=&quot;Helvetica&quot; style=&quot;font-size: 12px;&quot;&gt;VLAN 11 - 10.10.11.1&lt;/font&gt;&lt;/div&gt;&lt;div&gt;&lt;font face=&quot;Helvetica&quot;&gt;VLAN 12 - 10.10.12.1&lt;/font&gt;&lt;div&gt;&lt;font face=&quot;Helvetica&quot;&gt;VLAN 13 - 10.10.13.1&lt;/font&gt;&lt;/div&gt;&lt;/div&gt;&lt;div&gt;&lt;font face=&quot;Helvetica&quot;&gt;.&lt;/font&gt;&lt;/div&gt;&lt;div&gt;&lt;font face=&quot;Helvetica&quot;&gt;.&lt;/font&gt;&lt;/div&gt;&lt;div&gt;&lt;font face=&quot;Helvetica&quot;&gt;.&lt;/font&gt;&lt;/div&gt;&lt;div&gt;&lt;font face=&quot;Helvetica&quot;&gt;&lt;br&gt;&lt;/font&gt;&lt;/div&gt;" style="text;html=1;align=center;verticalAlign=middle;whiteSpace=wrap;rounded=0;fontFamily=Architects Daughter;fontSource=https%3A%2F%2Ffonts.googleapis.com%2Fcss%3Ffamily%3DArchitects%2BDaughter;" vertex="1" parent="S7tSfiDVmj8yiDo-f-o7-75">
          <mxGeometry x="64" y="242" width="125" height="71" as="geometry" />
        </mxCell>
        <mxCell id="S7tSfiDVmj8yiDo-f-o7-31" value="&lt;font face=&quot;Helvetica&quot;&gt;SA-Mgmt&lt;/font&gt;&lt;div&gt;&lt;font face=&quot;Helvetica&quot;&gt;VLAN10&lt;/font&gt;&lt;/div&gt;" style="text;html=1;align=center;verticalAlign=middle;whiteSpace=wrap;rounded=0;fontFamily=Architects Daughter;fontSource=https%3A%2F%2Ffonts.googleapis.com%2Fcss%3Ffamily%3DArchitects%2BDaughter;" vertex="1" parent="S7tSfiDVmj8yiDo-f-o7-75">
          <mxGeometry x="311" y="256" width="60" height="30" as="geometry" />
        </mxCell>
        <mxCell id="S7tSfiDVmj8yiDo-f-o7-32" value="" style="sketch=0;pointerEvents=1;shadow=0;dashed=0;html=1;strokeColor=none;fillColor=#005F4B;labelPosition=center;verticalLabelPosition=bottom;verticalAlign=top;align=center;outlineConnect=0;shape=mxgraph.veeam2.vcenter_server;hachureGap=4;jiggle=2;curveFitting=1;fontFamily=Architects Daughter;fontSource=https%3A%2F%2Ffonts.googleapis.com%2Fcss%3Ffamily%3DArchitects%2BDaughter;" vertex="1" parent="S7tSfiDVmj8yiDo-f-o7-75">
          <mxGeometry x="354" y="369" width="80" height="79" as="geometry" />
        </mxCell>
        <mxCell id="S7tSfiDVmj8yiDo-f-o7-33" value="" style="shape=link;html=1;rounded=0;sketch=1;hachureGap=4;jiggle=2;curveFitting=1;fontFamily=Architects Daughter;fontSource=https%3A%2F%2Ffonts.googleapis.com%2Fcss%3Ffamily%3DArchitects%2BDaughter;" edge="1" parent="S7tSfiDVmj8yiDo-f-o7-75" source="S7tSfiDVmj8yiDo-f-o7-5" target="S7tSfiDVmj8yiDo-f-o7-8">
          <mxGeometry width="100" relative="1" as="geometry">
            <mxPoint x="451" y="233" as="sourcePoint" />
            <mxPoint x="551" y="233" as="targetPoint" />
          </mxGeometry>
        </mxCell>
        <mxCell id="S7tSfiDVmj8yiDo-f-o7-34" value="" style="shape=link;html=1;rounded=0;sketch=1;hachureGap=4;jiggle=2;curveFitting=1;fontFamily=Architects Daughter;fontSource=https%3A%2F%2Ffonts.googleapis.com%2Fcss%3Ffamily%3DArchitects%2BDaughter;" edge="1" parent="S7tSfiDVmj8yiDo-f-o7-75" source="S7tSfiDVmj8yiDo-f-o7-5" target="S7tSfiDVmj8yiDo-f-o7-14">
          <mxGeometry width="100" relative="1" as="geometry">
            <mxPoint x="237" y="383" as="sourcePoint" />
            <mxPoint x="286" y="322" as="targetPoint" />
          </mxGeometry>
        </mxCell>
        <mxCell id="S7tSfiDVmj8yiDo-f-o7-35" value="" style="endArrow=none;html=1;rounded=0;sketch=1;hachureGap=4;jiggle=2;curveFitting=1;fontFamily=Architects Daughter;fontSource=https%3A%2F%2Ffonts.googleapis.com%2Fcss%3Ffamily%3DArchitects%2BDaughter;" edge="1" parent="S7tSfiDVmj8yiDo-f-o7-75" source="S7tSfiDVmj8yiDo-f-o7-14" target="S7tSfiDVmj8yiDo-f-o7-32">
          <mxGeometry width="50" height="50" relative="1" as="geometry">
            <mxPoint x="311" y="80" as="sourcePoint" />
            <mxPoint x="386" y="43" as="targetPoint" />
          </mxGeometry>
        </mxCell>
        <mxCell id="S7tSfiDVmj8yiDo-f-o7-36" value="" style="sketch=0;pointerEvents=1;shadow=0;dashed=0;html=1;strokeColor=none;fillColor=#005F4B;labelPosition=center;verticalLabelPosition=bottom;verticalAlign=top;align=center;outlineConnect=0;shape=mxgraph.veeam2.esxi_host;hachureGap=4;jiggle=2;curveFitting=1;fontFamily=Architects Daughter;fontSource=https%3A%2F%2Ffonts.googleapis.com%2Fcss%3Ffamily%3DArchitects%2BDaughter;" vertex="1" parent="S7tSfiDVmj8yiDo-f-o7-75">
          <mxGeometry x="126" y="371" width="90" height="79" as="geometry" />
        </mxCell>
        <mxCell id="S7tSfiDVmj8yiDo-f-o7-37" value="" style="sketch=0;pointerEvents=1;shadow=0;dashed=0;html=1;strokeColor=none;fillColor=#005F4B;labelPosition=center;verticalLabelPosition=bottom;verticalAlign=top;align=center;outlineConnect=0;shape=mxgraph.veeam2.esxi_host;hachureGap=4;jiggle=2;curveFitting=1;fontFamily=Architects Daughter;fontSource=https%3A%2F%2Ffonts.googleapis.com%2Fcss%3Ffamily%3DArchitects%2BDaughter;" vertex="1" parent="S7tSfiDVmj8yiDo-f-o7-75">
          <mxGeometry x="61" y="371" width="90" height="79" as="geometry" />
        </mxCell>
        <mxCell id="S7tSfiDVmj8yiDo-f-o7-38" value="" style="sketch=0;pointerEvents=1;shadow=0;dashed=0;html=1;strokeColor=none;fillColor=#005F4B;labelPosition=center;verticalLabelPosition=bottom;verticalAlign=top;align=center;outlineConnect=0;shape=mxgraph.veeam2.esxi_host;hachureGap=4;jiggle=2;curveFitting=1;fontFamily=Architects Daughter;fontSource=https%3A%2F%2Ffonts.googleapis.com%2Fcss%3Ffamily%3DArchitects%2BDaughter;" vertex="1" parent="S7tSfiDVmj8yiDo-f-o7-75">
          <mxGeometry x="1" y="372" width="90" height="79" as="geometry" />
        </mxCell>
        <mxCell id="S7tSfiDVmj8yiDo-f-o7-39" value="&lt;div&gt;&lt;font face=&quot;Helvetica&quot; style=&quot;font-size: 12px;&quot;&gt;sa-esxi-01.vclass.local&lt;/font&gt;&lt;/div&gt;&lt;font face=&quot;Helvetica&quot; style=&quot;font-size: 12px;&quot;&gt;vmk0 - 10.10.10.11&lt;/font&gt;&lt;div&gt;&lt;font face=&quot;Helvetica&quot; style=&quot;font-size: 12px;&quot;&gt;vmk1 - 10.10.11.11&lt;/font&gt;&lt;/div&gt;&lt;div&gt;&lt;font face=&quot;Helvetica&quot;&gt;vmk2 - 10.10.12.11&lt;/font&gt;&lt;/div&gt;" style="text;html=1;align=center;verticalAlign=middle;whiteSpace=wrap;rounded=0;fontFamily=Architects Daughter;fontSource=https%3A%2F%2Ffonts.googleapis.com%2Fcss%3Ffamily%3DArchitects%2BDaughter;" vertex="1" parent="S7tSfiDVmj8yiDo-f-o7-75">
          <mxGeometry y="454" width="125" height="71" as="geometry" />
        </mxCell>
        <mxCell id="S7tSfiDVmj8yiDo-f-o7-40" value="&lt;div&gt;&lt;font face=&quot;Helvetica&quot; style=&quot;font-size: 12px;&quot;&gt;sa-esxi-04.vclass.local&lt;/font&gt;&lt;/div&gt;&lt;font face=&quot;Helvetica&quot; style=&quot;font-size: 12px;&quot;&gt;vmk0 - 10.10.10.14&lt;/font&gt;&lt;div&gt;&lt;font face=&quot;Helvetica&quot; style=&quot;font-size: 12px;&quot;&gt;vmk1 - 10.10.11.14&lt;/font&gt;&lt;/div&gt;&lt;div&gt;&lt;font face=&quot;Helvetica&quot;&gt;vmk2 - 10.10.12.14&lt;/font&gt;&lt;/div&gt;" style="text;html=1;align=center;verticalAlign=middle;whiteSpace=wrap;rounded=0;fontFamily=Architects Daughter;fontSource=https%3A%2F%2Ffonts.googleapis.com%2Fcss%3Ffamily%3DArchitects%2BDaughter;" vertex="1" parent="S7tSfiDVmj8yiDo-f-o7-75">
          <mxGeometry x="157" y="454" width="125" height="71" as="geometry" />
        </mxCell>
        <mxCell id="S7tSfiDVmj8yiDo-f-o7-41" value="" style="endArrow=none;dashed=1;html=1;dashPattern=1 3;strokeWidth=2;rounded=0;sketch=1;hachureGap=4;jiggle=2;curveFitting=1;fontFamily=Architects Daughter;fontSource=https%3A%2F%2Ffonts.googleapis.com%2Fcss%3Ffamily%3DArchitects%2BDaughter;" edge="1" parent="S7tSfiDVmj8yiDo-f-o7-75">
          <mxGeometry width="50" height="50" relative="1" as="geometry">
            <mxPoint x="126" y="489" as="sourcePoint" />
            <mxPoint x="166.5" y="489" as="targetPoint" />
          </mxGeometry>
        </mxCell>
        <mxCell id="S7tSfiDVmj8yiDo-f-o7-43" value="&lt;font face=&quot;Helvetica&quot;&gt;sa-vcsa-01.vcalss.local&lt;/font&gt;&lt;div&gt;&lt;font face=&quot;Helvetica&quot;&gt;10.10.10.10&lt;/font&gt;&lt;/div&gt;" style="text;html=1;align=center;verticalAlign=middle;whiteSpace=wrap;rounded=0;fontFamily=Architects Daughter;fontSource=https%3A%2F%2Ffonts.googleapis.com%2Fcss%3Ffamily%3DArchitects%2BDaughter;" vertex="1" parent="S7tSfiDVmj8yiDo-f-o7-75">
          <mxGeometry x="324" y="466.5" width="140" height="30" as="geometry" />
        </mxCell>
        <mxCell id="S7tSfiDVmj8yiDo-f-o7-44" value="" style="sketch=0;pointerEvents=1;shadow=0;dashed=0;html=1;strokeColor=none;fillColor=#005F4B;labelPosition=center;verticalLabelPosition=bottom;verticalAlign=top;align=center;outlineConnect=0;shape=mxgraph.veeam2.esxi_host;hachureGap=4;jiggle=2;curveFitting=1;fontFamily=Architects Daughter;fontSource=https%3A%2F%2Ffonts.googleapis.com%2Fcss%3Ffamily%3DArchitects%2BDaughter;" vertex="1" parent="S7tSfiDVmj8yiDo-f-o7-75">
          <mxGeometry x="714" y="372" width="90" height="79" as="geometry" />
        </mxCell>
        <mxCell id="S7tSfiDVmj8yiDo-f-o7-45" value="" style="sketch=0;pointerEvents=1;shadow=0;dashed=0;html=1;strokeColor=none;fillColor=#005F4B;labelPosition=center;verticalLabelPosition=bottom;verticalAlign=top;align=center;outlineConnect=0;shape=mxgraph.veeam2.esxi_host;hachureGap=4;jiggle=2;curveFitting=1;fontFamily=Architects Daughter;fontSource=https%3A%2F%2Ffonts.googleapis.com%2Fcss%3Ffamily%3DArchitects%2BDaughter;" vertex="1" parent="S7tSfiDVmj8yiDo-f-o7-75">
          <mxGeometry x="653" y="372" width="90" height="79" as="geometry" />
        </mxCell>
        <mxCell id="S7tSfiDVmj8yiDo-f-o7-46" value="" style="sketch=0;pointerEvents=1;shadow=0;dashed=0;html=1;strokeColor=none;fillColor=#005F4B;labelPosition=center;verticalLabelPosition=bottom;verticalAlign=top;align=center;outlineConnect=0;shape=mxgraph.veeam2.esxi_host;hachureGap=4;jiggle=2;curveFitting=1;fontFamily=Architects Daughter;fontSource=https%3A%2F%2Ffonts.googleapis.com%2Fcss%3Ffamily%3DArchitects%2BDaughter;" vertex="1" parent="S7tSfiDVmj8yiDo-f-o7-75">
          <mxGeometry x="588" y="372" width="90" height="79" as="geometry" />
        </mxCell>
        <mxCell id="S7tSfiDVmj8yiDo-f-o7-47" value="" style="sketch=0;pointerEvents=1;shadow=0;dashed=0;html=1;strokeColor=none;fillColor=#005F4B;labelPosition=center;verticalLabelPosition=bottom;verticalAlign=top;align=center;outlineConnect=0;shape=mxgraph.veeam2.esxi_host;hachureGap=4;jiggle=2;curveFitting=1;fontFamily=Architects Daughter;fontSource=https%3A%2F%2Ffonts.googleapis.com%2Fcss%3Ffamily%3DArchitects%2BDaughter;" vertex="1" parent="S7tSfiDVmj8yiDo-f-o7-75">
          <mxGeometry x="528" y="373" width="90" height="79" as="geometry" />
        </mxCell>
        <mxCell id="S7tSfiDVmj8yiDo-f-o7-48" value="&lt;div&gt;&lt;font face=&quot;Helvetica&quot; style=&quot;font-size: 12px;&quot;&gt;sb-esxi-01.vclass.local&lt;/font&gt;&lt;/div&gt;&lt;font face=&quot;Helvetica&quot; style=&quot;font-size: 12px;&quot;&gt;vmk0 - 10.10.20.11&lt;/font&gt;&lt;div&gt;&lt;font face=&quot;Helvetica&quot; style=&quot;font-size: 12px;&quot;&gt;vmk1 - 10.10.21.11&lt;/font&gt;&lt;/div&gt;&lt;div&gt;&lt;font face=&quot;Helvetica&quot;&gt;vmk2 - 10.10.22.11&lt;/font&gt;&lt;/div&gt;" style="text;html=1;align=center;verticalAlign=middle;whiteSpace=wrap;rounded=0;fontFamily=Architects Daughter;fontSource=https%3A%2F%2Ffonts.googleapis.com%2Fcss%3Ffamily%3DArchitects%2BDaughter;" vertex="1" parent="S7tSfiDVmj8yiDo-f-o7-75">
          <mxGeometry x="527" y="455" width="125" height="71" as="geometry" />
        </mxCell>
        <mxCell id="S7tSfiDVmj8yiDo-f-o7-49" value="&lt;div&gt;&lt;font face=&quot;Helvetica&quot; style=&quot;font-size: 12px;&quot;&gt;sb-esxi-04.vclass.local&lt;/font&gt;&lt;/div&gt;&lt;font face=&quot;Helvetica&quot; style=&quot;font-size: 12px;&quot;&gt;vmk0 - 10.10.20.14&lt;/font&gt;&lt;div&gt;&lt;font face=&quot;Helvetica&quot; style=&quot;font-size: 12px;&quot;&gt;vmk1 - 10.10.21.14&lt;/font&gt;&lt;/div&gt;&lt;div&gt;&lt;font face=&quot;Helvetica&quot;&gt;vmk2 - 10.10.22.14&lt;/font&gt;&lt;/div&gt;" style="text;html=1;align=center;verticalAlign=middle;whiteSpace=wrap;rounded=0;fontFamily=Architects Daughter;fontSource=https%3A%2F%2Ffonts.googleapis.com%2Fcss%3Ffamily%3DArchitects%2BDaughter;" vertex="1" parent="S7tSfiDVmj8yiDo-f-o7-75">
          <mxGeometry x="684" y="455" width="125" height="71" as="geometry" />
        </mxCell>
        <mxCell id="S7tSfiDVmj8yiDo-f-o7-50" value="" style="endArrow=none;dashed=1;html=1;dashPattern=1 3;strokeWidth=2;rounded=0;sketch=1;hachureGap=4;jiggle=2;curveFitting=1;fontFamily=Architects Daughter;fontSource=https%3A%2F%2Ffonts.googleapis.com%2Fcss%3Ffamily%3DArchitects%2BDaughter;" edge="1" parent="S7tSfiDVmj8yiDo-f-o7-75">
          <mxGeometry width="50" height="50" relative="1" as="geometry">
            <mxPoint x="653" y="490" as="sourcePoint" />
            <mxPoint x="693.5" y="490" as="targetPoint" />
          </mxGeometry>
        </mxCell>
        <mxCell id="S7tSfiDVmj8yiDo-f-o7-52" value="&lt;font face=&quot;Helvetica&quot;&gt;SA-Storage&lt;/font&gt;&lt;div&gt;&lt;font face=&quot;Helvetica&quot;&gt;VLAN11&lt;/font&gt;&lt;/div&gt;" style="text;html=1;align=center;verticalAlign=middle;whiteSpace=wrap;rounded=0;fontFamily=Architects Daughter;fontSource=https%3A%2F%2Ffonts.googleapis.com%2Fcss%3Ffamily%3DArchitects%2BDaughter;" vertex="1" parent="S7tSfiDVmj8yiDo-f-o7-75">
          <mxGeometry x="352" y="317" width="73" height="30" as="geometry" />
        </mxCell>
        <mxCell id="S7tSfiDVmj8yiDo-f-o7-53" value="&lt;font face=&quot;Helvetica&quot;&gt;SA-vMotion&lt;/font&gt;&lt;div&gt;&lt;font face=&quot;Helvetica&quot;&gt;VLAN12&lt;/font&gt;&lt;/div&gt;" style="text;html=1;align=center;verticalAlign=middle;whiteSpace=wrap;rounded=0;fontFamily=Architects Daughter;fontSource=https%3A%2F%2Ffonts.googleapis.com%2Fcss%3Ffamily%3DArchitects%2BDaughter;" vertex="1" parent="S7tSfiDVmj8yiDo-f-o7-75">
          <mxGeometry x="401" y="256" width="65" height="30" as="geometry" />
        </mxCell>
        <mxCell id="S7tSfiDVmj8yiDo-f-o7-54" value="&lt;font face=&quot;Helvetica&quot;&gt;SA-Prod&lt;/font&gt;&lt;div&gt;&lt;font face=&quot;Helvetica&quot;&gt;VLAN13&lt;/font&gt;&lt;/div&gt;" style="text;html=1;align=center;verticalAlign=middle;whiteSpace=wrap;rounded=0;fontFamily=Architects Daughter;fontSource=https%3A%2F%2Ffonts.googleapis.com%2Fcss%3Ffamily%3DArchitects%2BDaughter;" vertex="1" parent="S7tSfiDVmj8yiDo-f-o7-75">
          <mxGeometry x="448" y="316" width="73" height="30" as="geometry" />
        </mxCell>
        <mxCell id="S7tSfiDVmj8yiDo-f-o7-55" value="" style="sketch=0;pointerEvents=1;shadow=0;dashed=0;html=1;strokeColor=none;fillColor=#434445;aspect=fixed;labelPosition=center;verticalLabelPosition=bottom;verticalAlign=top;align=center;outlineConnect=0;shape=mxgraph.vvd.virtual_switch;hachureGap=4;jiggle=2;curveFitting=1;fontFamily=Architects Daughter;fontSource=https%3A%2F%2Ffonts.googleapis.com%2Fcss%3Ffamily%3DArchitects%2BDaughter;" vertex="1" parent="S7tSfiDVmj8yiDo-f-o7-75">
          <mxGeometry x="511" y="285" width="50" height="26.5" as="geometry" />
        </mxCell>
        <mxCell id="S7tSfiDVmj8yiDo-f-o7-56" value="" style="sketch=0;pointerEvents=1;shadow=0;dashed=0;html=1;strokeColor=none;fillColor=#434445;aspect=fixed;labelPosition=center;verticalLabelPosition=bottom;verticalAlign=top;align=center;outlineConnect=0;shape=mxgraph.vvd.virtual_switch;hachureGap=4;jiggle=2;curveFitting=1;fontFamily=Architects Daughter;fontSource=https%3A%2F%2Ffonts.googleapis.com%2Fcss%3Ffamily%3DArchitects%2BDaughter;" vertex="1" parent="S7tSfiDVmj8yiDo-f-o7-75">
          <mxGeometry x="561" y="285" width="50" height="26.5" as="geometry" />
        </mxCell>
        <mxCell id="S7tSfiDVmj8yiDo-f-o7-57" value="" style="sketch=0;pointerEvents=1;shadow=0;dashed=0;html=1;strokeColor=none;fillColor=#434445;aspect=fixed;labelPosition=center;verticalLabelPosition=bottom;verticalAlign=top;align=center;outlineConnect=0;shape=mxgraph.vvd.virtual_switch;hachureGap=4;jiggle=2;curveFitting=1;fontFamily=Architects Daughter;fontSource=https%3A%2F%2Ffonts.googleapis.com%2Fcss%3Ffamily%3DArchitects%2BDaughter;" vertex="1" parent="S7tSfiDVmj8yiDo-f-o7-75">
          <mxGeometry x="611" y="285" width="50" height="26.5" as="geometry" />
        </mxCell>
        <mxCell id="S7tSfiDVmj8yiDo-f-o7-58" value="" style="sketch=0;pointerEvents=1;shadow=0;dashed=0;html=1;strokeColor=none;fillColor=#434445;aspect=fixed;labelPosition=center;verticalLabelPosition=bottom;verticalAlign=top;align=center;outlineConnect=0;shape=mxgraph.vvd.virtual_switch;hachureGap=4;jiggle=2;curveFitting=1;fontFamily=Architects Daughter;fontSource=https%3A%2F%2Ffonts.googleapis.com%2Fcss%3Ffamily%3DArchitects%2BDaughter;" vertex="1" parent="S7tSfiDVmj8yiDo-f-o7-75">
          <mxGeometry x="661" y="285" width="50" height="26.5" as="geometry" />
        </mxCell>
        <mxCell id="S7tSfiDVmj8yiDo-f-o7-59" value="&lt;font face=&quot;Helvetica&quot;&gt;SB-Mgmt&lt;/font&gt;&lt;div&gt;&lt;font face=&quot;Helvetica&quot;&gt;VLAN20&lt;/font&gt;&lt;/div&gt;" style="text;html=1;align=center;verticalAlign=middle;whiteSpace=wrap;rounded=0;fontFamily=Architects Daughter;fontSource=https%3A%2F%2Ffonts.googleapis.com%2Fcss%3Ffamily%3DArchitects%2BDaughter;" vertex="1" parent="S7tSfiDVmj8yiDo-f-o7-75">
          <mxGeometry x="511" y="256" width="60" height="30" as="geometry" />
        </mxCell>
        <mxCell id="S7tSfiDVmj8yiDo-f-o7-60" value="&lt;font face=&quot;Helvetica&quot;&gt;SB-vMotion&lt;/font&gt;&lt;div&gt;&lt;font face=&quot;Helvetica&quot;&gt;VLAN22&lt;/font&gt;&lt;/div&gt;" style="text;html=1;align=center;verticalAlign=middle;whiteSpace=wrap;rounded=0;fontFamily=Architects Daughter;fontSource=https%3A%2F%2Ffonts.googleapis.com%2Fcss%3Ffamily%3DArchitects%2BDaughter;" vertex="1" parent="S7tSfiDVmj8yiDo-f-o7-75">
          <mxGeometry x="601" y="256" width="65" height="30" as="geometry" />
        </mxCell>
        <mxCell id="S7tSfiDVmj8yiDo-f-o7-62" value="&lt;font face=&quot;Helvetica&quot;&gt;SB-Storage&lt;/font&gt;&lt;div&gt;&lt;font face=&quot;Helvetica&quot;&gt;VLAN21&lt;/font&gt;&lt;/div&gt;" style="text;html=1;align=center;verticalAlign=middle;whiteSpace=wrap;rounded=0;fontFamily=Architects Daughter;fontSource=https%3A%2F%2Ffonts.googleapis.com%2Fcss%3Ffamily%3DArchitects%2BDaughter;" vertex="1" parent="S7tSfiDVmj8yiDo-f-o7-75">
          <mxGeometry x="553" y="315" width="73" height="30" as="geometry" />
        </mxCell>
        <mxCell id="S7tSfiDVmj8yiDo-f-o7-63" value="&lt;font face=&quot;Helvetica&quot;&gt;SB-Prod&lt;/font&gt;&lt;div&gt;&lt;font face=&quot;Helvetica&quot;&gt;VLAN23&lt;/font&gt;&lt;/div&gt;" style="text;html=1;align=center;verticalAlign=middle;whiteSpace=wrap;rounded=0;fontFamily=Architects Daughter;fontSource=https%3A%2F%2Ffonts.googleapis.com%2Fcss%3Ffamily%3DArchitects%2BDaughter;" vertex="1" parent="S7tSfiDVmj8yiDo-f-o7-75">
          <mxGeometry x="649" y="314" width="73" height="30" as="geometry" />
        </mxCell>
        <mxCell id="S7tSfiDVmj8yiDo-f-o7-64" value="" style="sketch=0;pointerEvents=1;shadow=0;dashed=0;html=1;strokeColor=none;fillColor=#434445;aspect=fixed;labelPosition=center;verticalLabelPosition=bottom;verticalAlign=top;align=center;outlineConnect=0;shape=mxgraph.vvd.virtual_switch;hachureGap=4;jiggle=2;curveFitting=1;fontFamily=Architects Daughter;fontSource=https%3A%2F%2Ffonts.googleapis.com%2Fcss%3Ffamily%3DArchitects%2BDaughter;" vertex="1" parent="S7tSfiDVmj8yiDo-f-o7-75">
          <mxGeometry x="709" y="284" width="50" height="26.5" as="geometry" />
        </mxCell>
        <mxCell id="S7tSfiDVmj8yiDo-f-o7-65" value="&lt;font face=&quot;Helvetica&quot;&gt;SC-Mgmt&lt;/font&gt;&lt;div&gt;&lt;font face=&quot;Helvetica&quot;&gt;VLAN30&lt;/font&gt;&lt;/div&gt;" style="text;html=1;align=center;verticalAlign=middle;whiteSpace=wrap;rounded=0;fontFamily=Architects Daughter;fontSource=https%3A%2F%2Ffonts.googleapis.com%2Fcss%3Ffamily%3DArchitects%2BDaughter;" vertex="1" parent="S7tSfiDVmj8yiDo-f-o7-75">
          <mxGeometry x="709" y="255" width="60" height="30" as="geometry" />
        </mxCell>
        <mxCell id="S7tSfiDVmj8yiDo-f-o7-66" value="" style="shape=link;html=1;rounded=0;sketch=1;hachureGap=4;jiggle=2;curveFitting=1;fontFamily=Architects Daughter;fontSource=https%3A%2F%2Ffonts.googleapis.com%2Fcss%3Ffamily%3DArchitects%2BDaughter;" edge="1" parent="S7tSfiDVmj8yiDo-f-o7-75">
          <mxGeometry width="100" relative="1" as="geometry">
            <mxPoint x="535" y="372" as="sourcePoint" />
            <mxPoint x="275" y="312" as="targetPoint" />
          </mxGeometry>
        </mxCell>
        <mxCell id="S7tSfiDVmj8yiDo-f-o7-67" value="" style="shape=link;html=1;rounded=0;sketch=1;hachureGap=4;jiggle=2;curveFitting=1;fontFamily=Architects Daughter;fontSource=https%3A%2F%2Ffonts.googleapis.com%2Fcss%3Ffamily%3DArchitects%2BDaughter;" edge="1" parent="S7tSfiDVmj8yiDo-f-o7-75" source="S7tSfiDVmj8yiDo-f-o7-47" target="S7tSfiDVmj8yiDo-f-o7-55">
          <mxGeometry width="100" relative="1" as="geometry">
            <mxPoint x="545" y="382" as="sourcePoint" />
            <mxPoint x="285" y="322" as="targetPoint" />
          </mxGeometry>
        </mxCell>
        <mxCell id="S7tSfiDVmj8yiDo-f-o7-68" value="" style="sketch=0;pointerEvents=1;shadow=0;dashed=0;html=1;strokeColor=none;fillColor=#505050;labelPosition=center;verticalLabelPosition=bottom;verticalAlign=top;outlineConnect=0;align=center;shape=mxgraph.office.communications.watcher_node;hachureGap=4;jiggle=2;curveFitting=1;fontFamily=Architects Daughter;fontSource=https%3A%2F%2Ffonts.googleapis.com%2Fcss%3Ffamily%3DArchitects%2BDaughter;" vertex="1" parent="S7tSfiDVmj8yiDo-f-o7-75">
          <mxGeometry x="743" y="152" width="52" height="56" as="geometry" />
        </mxCell>
        <mxCell id="S7tSfiDVmj8yiDo-f-o7-71" value="" style="endArrow=none;html=1;rounded=0;sketch=1;hachureGap=4;jiggle=2;curveFitting=1;fontFamily=Architects Daughter;fontSource=https%3A%2F%2Ffonts.googleapis.com%2Fcss%3Ffamily%3DArchitects%2BDaughter;" edge="1" parent="S7tSfiDVmj8yiDo-f-o7-75" source="S7tSfiDVmj8yiDo-f-o7-64" target="S7tSfiDVmj8yiDo-f-o7-68">
          <mxGeometry width="50" height="50" relative="1" as="geometry">
            <mxPoint x="603" y="215" as="sourcePoint" />
            <mxPoint x="678" y="178" as="targetPoint" />
          </mxGeometry>
        </mxCell>
        <mxCell id="S7tSfiDVmj8yiDo-f-o7-72" value="&lt;font face=&quot;Helvetica&quot;&gt;sc-witness-01.vclass.local&lt;/font&gt;&lt;div&gt;&lt;font face=&quot;Helvetica&quot;&gt;10.10.30.11&lt;/font&gt;&lt;/div&gt;" style="text;html=1;align=center;verticalAlign=middle;whiteSpace=wrap;rounded=0;fontFamily=Architects Daughter;fontSource=https%3A%2F%2Ffonts.googleapis.com%2Fcss%3Ffamily%3DArchitects%2BDaughter;" vertex="1" parent="S7tSfiDVmj8yiDo-f-o7-75">
          <mxGeometry x="599" y="164" width="143" height="30" as="geometry" />
        </mxCell>
        <mxCell id="S7tSfiDVmj8yiDo-f-o7-73" value="&lt;font face=&quot;Helvetica&quot;&gt;Active directory (DNS)&lt;/font&gt;&lt;div&gt;&lt;font face=&quot;Helvetica&quot;&gt;Routing,&amp;nbsp;&lt;/font&gt;&lt;span style=&quot;font-family: Helvetica; background-color: transparent; color: light-dark(rgb(0, 0, 0), rgb(255, 255, 255));&quot;&gt;WSL + Ansible&lt;/span&gt;&lt;/div&gt;&lt;div&gt;&lt;font face=&quot;Helvetica&quot;&gt;{vSphere | SSH} Clients..&lt;/font&gt;&lt;/div&gt;" style="html=1;shadow=0;dashed=0;shape=mxgraph.atlassian.issue;issueType=story;issuePriority=blocker;issueStatus=inProgress;verticalAlign=top;align=left;whiteSpace=wrap;overflow=hidden;spacingTop=25;strokeColor=#A8ADB0;fillColor=#EEEEEE;fontSize=12;backgroundOutline=1;sketch=0;hachureGap=4;jiggle=2;curveFitting=1;fontFamily=Architects Daughter;fontSource=https%3A%2F%2Ffonts.googleapis.com%2Fcss%3Ffamily%3DArchitects%2BDaughter;" vertex="1" parent="S7tSfiDVmj8yiDo-f-o7-75">
          <mxGeometry x="217.74" y="139.5" width="137.26" height="79" as="geometry" />
        </mxCell>
        <mxCell id="S7tSfiDVmj8yiDo-f-o7-74" value="ID" style="strokeColor=none;fillColor=none;part=1;resizable=0;align=left;autosize=1;points=[];deletable=0;connectable=0;sketch=1;hachureGap=4;jiggle=2;curveFitting=1;fontFamily=Architects Daughter;fontSource=https%3A%2F%2Ffonts.googleapis.com%2Fcss%3Ffamily%3DArchitects%2BDaughter;" vertex="1" parent="S7tSfiDVmj8yiDo-f-o7-73">
          <mxGeometry width="60" height="20" relative="1" as="geometry">
            <mxPoint x="20" as="offset" />
          </mxGeometry>
        </mxCell>
      </root>
    </mxGraphModel>
  </diagram>
</mxfile>
